<svg width="32" height="40" viewBox="0 0 32 40" fill="none" xmlns="http://www.w3.org/2000/svg">
<path fill-rule="evenodd" clip-rule="evenodd" d="M8 0C3.58172 0 0 3.58172 0 8V25.1577C0 28.9366 3.06338 32 6.84225 32H6C10.7568 32.4523 14.4628 35.3814 15.5 39.5C15.5 39.5 15.5859 40 16 40C16.4141 40 16.5 39.5 16.5 39.5C17.5372 35.3814 21.2432 32.4523 26 32H24C28.4183 32 32 28.4183 32 24V8C32 3.58172 28.4183 0 24 0H8Z" fill="#FF6666"/>
<path d="M15.3822 8.21368C15.7448 7.92877 16.2553 7.92877 16.6179 8.21368L23.6179 13.7137C24.0521 14.0549 24.1276 14.6835 23.7864 15.1178C23.4451 15.5521 22.8165 15.6275 22.3822 15.2863L22 14.986V24H18V17H14V24H10V14.9861L9.61786 15.2863C9.18359 15.6275 8.55494 15.5521 8.21372 15.1178C7.87251 14.6835 7.94795 14.0549 8.38222 13.7137L15.3822 8.21368Z" fill="white"/>
<path d="M17 24H15V18H17V24Z" fill="white"/>
</svg>