<svg width="32" height="40" viewBox="0 0 32 40" fill="none" xmlns="http://www.w3.org/2000/svg">
<path fill-rule="evenodd" clip-rule="evenodd" d="M8 0C3.58172 0 0 3.58172 0 8V25.1577C0 28.9366 3.06338 32 6.84225 32H6C10.7568 32.4523 14.4628 35.3814 15.5 39.5C15.5 39.5 15.5859 40 16 40C16.4141 40 16.5 39.5 16.5 39.5C17.5372 35.3814 21.2432 32.4523 26 32H24C28.4183 32 32 28.4183 32 24V8C32 3.58172 28.4183 0 24 0H8Z" fill="#0077FF"/>
<path fill-rule="evenodd" clip-rule="evenodd" d="M10 11H11V24H8V13C8 11.8954 8.89543 11 10 11ZM20 15H22C23.1046 15 24 15.8954 24 17V24H20V15ZM12 8H19V24H16.2H13.4H12V8Z" fill="white"/>
</svg>